<svg id="Capa_1" data-name="Capa 1" xmlns="http://www.w3.org/2000/svg" viewBox="0 0 892.62 322.07"><defs><style>.cls-1,.cls-2{fill:#a48343;}.cls-2{stroke:#a48343;stroke-miterlimit:10;stroke-width:7px;}</style></defs><path class="cls-1" d="M637.41,231.26c-12.7,12.25-20.41,27.27-24.65,44.21a98.9,98.9,0,0,0-2.11,39.43c2.31,2,.64,4.66,1,7v0c-.12,5.16,2.3,9.8,3,14.79,5.48,14.17,12.48,27.36,24.06,37.66,11.77,10.47,25.32,16,41.22,15.21,1.31-.07,2.66.09,3.82-.77h0c1.66-2.17,4-.84,6-1.12,12-2.48,21.47-9.17,29.6-17.91,10.63-11.42,16.93-25.23,21.31-40h0c.72-4.41,1.63-8.79,2.14-13.23,3.5-30.42-2.79-58.17-23.18-81.75C697.74,209.33,661.57,207.94,637.41,231.26Zm92.13,89.27c-3.24,17.78-10.74,33.41-24.65,45.51-16.84,14.65-40.68,14.34-57.14-.75-13.81-12.67-21.19-28.63-24.12-46.89a23.66,23.66,0,0,0-.79-2.82h0c-2.06-2.07-1.11-4.69-1-7,.3-6.28-1.21-12.65.88-18.83,1.48-5.36,1.45-11.09,4-16.2h0c.65-5.21,3.73-9.54,5.22-14.44h0c-.17-1.57-.34-3.16,1.92-3.35,3.37-4.71,6.49-9.61,10.62-13.74,18.72-18.69,41.78-19.86,61.8-2.48,12.43,10.79,19.44,24.95,22.42,41.1C732.29,293.87,732,307.23,729.54,320.53Z" transform="translate(148.82 -214.56)"/><path class="cls-1" d="M31.52,265.88c13.62,39,27.29,78,40.62,117.08,1.72,5,3.76,7.58,9.23,6.66a32.32,32.32,0,0,1,6,0c.71-1,.05-1.93-.25-2.82q-29.2-84-58.46-168c-.33-1-.14-2.39-1.86-2.48a16.2,16.2,0,0,0-.85,1.79q-29.19,84-58.33,168c-.37,1.07-1.7,2.35-.06,3.55a54.9,54.9,0,0,1,7.9-.08c3.42.44,5.22-1,6.14-4h0a2.11,2.11,0,0,1,.74-2.09c5.24-16.79,11.17-33.34,17.25-49.83h0c3.86-12.23,8-24.38,12.69-36.3,4.76-14.12,9.52-28.25,14.56-43.18C29.38,258.35,30.24,262.22,31.52,265.88Z" transform="translate(148.82 -214.56)"/><path class="cls-1" d="M236.16,389.36c2.92-.18,2.43-2.84,3-4.47q21.93-62.73,43.7-125.51c.49-1.4,1-2.78,2-5.36,1.7,4.57,3.1,8.15,4.36,11.77q20,57.6,40,115.22c.54,1.56,1.29,3,1.94,4.56,3-.28,3.05,1.74,3,3.84l10,.32c2.46-2.07.21-4.06-.39-5.79Q316,303.66,288.07,223.47c-.86-2.48-1.23-5.32-3.54-7.58-.56,1.47-1,2.55-1.36,3.64q-22.05,63.51-44.08,127c-4.72,13.63-9.29,27.32-13.92,41h0C228.8,388.34,233,385.85,236.16,389.36Zm.9-29c1.58,2.21,1.1,4.4.25,6.59C235.83,364.71,236.25,362.52,237.06,360.33Z" transform="translate(148.82 -214.56)"/><path class="cls-1" d="M117.15,376.76c-2.58-.29-5.06-.39-6.55,1.24a5,5,0,0,0-1.15,3.12C110,377.61,111.82,376.91,117.15,376.76Z" transform="translate(148.82 -214.56)"/><path class="cls-1" d="M117.56,215.8c-7.47,0-9.2,2.4-6.47,9.53.44,1.17.22,1.34-.47,1.81,11,.92,22.06.17,33.1.4,6.76.14,13.52.23,20.28.34h0c1.75,0,3.52,0,5.27-.09,2.33-.13,3.2,1,2.93,3.21,8.9,6,15.92,13.24,17.21,24.54h0c4.27,15.57-7.08,34.14-23.58,39-3.17.92-7.86-.62-9.24,2.82-1.26,3.13-.24,7.17-.22,10.8a4.26,4.26,0,0,0,.06.5c17.06.53,31.17,12.44,33,27.84h0c1.56,3.86,1.13,7.86.41,11.73-2.77,15.11-12.27,24.05-26.63,28.35h0c-.83,2.1-2.64,1-3.91,1-14.27.09-28.54.33-42.79-.08-5.3-.15-6.82,1.63-6.15,6.47a43.35,43.35,0,0,1,.06,5.47c16.58,0,33.23,1.07,49.72-.14,21-1.54,34.41-13.92,41.34-33.55h0c.57-3.75,1.51-7.48,1.63-11.25.55-16.42-6.39-29.39-18.85-39.68l-3.89-2.35c2.81-3.07,6.57-4.57,8.75-7.79h0a7.62,7.62,0,0,0-4.7-.93l-.12.11c-.17,1.13.53,2.53-1,3.32-1.51-.79-.81-2.18-1-3.31a3.47,3.47,0,0,1-.3-.4,2.74,2.74,0,0,0-.84-.47c-.86.5-2.7.89-6.41,1.67,2.18-2.43,4.93-2.46,6.86-4,.21.95.33,1.53-.06,2a3.12,3.12,0,0,1,.64,1,.81.81,0,0,1,.1.09h2l0,0c1.5-4.26,4.09-4.19,7.27-1.81l.81-1h0c-.78-.83-1.55-1.67-2.36-2.47-5.1-5.1-5.1-5.1,1.85-8.1.29,2.78.68,5.53,3.13,7.29,3.1-3.79,4.69-8.34,6.44-12.8h0a57.52,57.52,0,0,0,.91-22.23c-3-18-20.63-35.35-37.9-36.83h0ZM172.86,377a1.67,1.67,0,0,1,.37-1.2c1.22-.94,2.4-1,3.39.48C175.6,377.89,174.29,377.87,172.86,377Z" transform="translate(148.82 -214.56)"/><path class="cls-1" d="M437.87,366.3c.38,2.59-.79,3.57-3.29,3.15h0c-7.94,6-16.94,7.73-26.72,7.36s-19.59-.08-29.39-.08c-12.84,0-12.84,0-12.39,12.78,14.6,0,29.21-.41,43.78.16a47.89,47.89,0,0,0,48.27-34h0c5.09-19.34-1.29-34.14-17.64-45.17-8.44-5.7-17.43-10.35-26.48-14.94-8.89-4.51-17.88-8.89-25.63-15.33-8.8-7.32-11.66-16.4-8.4-26.62,2.41-13.41,15.38-25.06,28.89-25.93l8.87-.55h0c.09-2.65.11-5.29.28-7.93s-.94-3.52-3.46-3.44c-3.26.1-6.53,0-9.8-.07.26-.11.53-.22.8-.31a3,3,0,0,0-.81.31c-7.17.41-13.18,3.67-18.85,7.75.15,2.22-1.3,2.37-2.95,2.28h0c-14.09,11.9-19.2,27-16.05,45.06,3.7,11.17,11.57,18.74,21.19,25,11.91,7.7,25,13.11,37.29,20.15,6.37,3.66,12.53,7.6,17.06,13.57,1.81,2.39,3.5,4.86,3.59,8h0c1.16,1.42.89,3.13.93,4.76.21,9.22-3.4,17-9.09,24Z" transform="translate(148.82 -214.56)"/><path class="cls-1" d="M530.28,242.57c14.79-11.5,31.73-16.21,50.37-14.91h0c2.14-3.82.77-7.9.88-11.88l-17.85,0h0a75,75,0,0,0-39.86,15.89c-1.22,3-2.29,6-5.68,7.41a2.2,2.2,0,0,0-1.52,2.59c.42,5.33-1.39,6.46-5.95,4.34a7,7,0,0,0-2-.3h0a38.37,38.37,0,0,0-2.68,2.89c-16.64,21.88-21.45,46.41-16.28,73.15h0c6.59,25.6,21.21,45.06,44.52,57.7,7.58,4.11,15.55,7.42,24.3,8.25h0c2.4.29,5.07-1.2,7.14,1.13,5.3,1.39,10.69.63,16,.61h0l-.31-11.84c-5.17-.54-10.49,1.21-15.56-1h0a26.71,26.71,0,0,0-2.88-.79c-20.07-3.23-35.93-13.43-47.89-29.58-13.52-18.25-17.49-38.65-12.39-60.79C506.13,267.45,516.11,253.6,530.28,242.57Z" transform="translate(148.82 -214.56)"/><path class="cls-1" d="M-61.44,241.77h0a2,2,0,0,0,1.95-1.89c.4-4.19-1.36-8.28,1.72-12.65,2.05-2.9-1.93-3.45-4.5-3.45q-34.68,0-69.37,0c-1.68,0-3.53.51-5-1.9h78.45c-1.33-2.57-3.18-2.05-4.83-2.05q-34.68-.06-69.38,0c-2.87,0-5.54.13-5-4h0a44.49,44.49,0,0,0-4.9,0c-1.77.18-4.69-1-4.81,1.75-.05,1.19-.5,2.55-.63,3.87a18.84,18.84,0,0,0,.78,3.15,4.76,4.76,0,0,0,1.56,1.18h0c3-2.68,6.07.14,9.12.11,21.38-.23,42.76-.15,64.14,0,1.27,0,3.28-1.3,3.89,1.2h0c1.17,1.8.79,3.77.61,5.72h0l.33,7h0C-65.28,240.31-62.43,238.34-61.44,241.77Z" transform="translate(148.82 -214.56)"/><path class="cls-1" d="M-146.88,215.56l.11-.05Z" transform="translate(148.82 -214.56)"/><path class="cls-2" d="M378.71,495.82c0-3,.05-6,0-9,0-1.21.6-3-1.35-3.19-2.18-.2-1.47,1.73-1.59,2.89a33.65,33.65,0,0,0,0,3.48v37.39c-2.22-.67-2.67-2.43-3.57-3.68q-13.55-18.8-26.93-37.71c-1.11-1.57-2.17-3.12-4.34-2.35-1.95.69-1.06,2.56-1.07,3.88-.07,13.47-.1,26.94,0,40.4,0,1.46-1.46,4.31,1.55,4.24,2.41-.05,1.3-2.64,1.31-4.07.1-11.63,0-23.27.1-34.91,0-1.13-.8-2.65,1-3.45,9.47,13.28,18.93,26.5,28.32,39.78,1.33,1.89,2.69,3.48,5.19,2.79,2.67-.74,1.36-3.06,1.38-4.59C378.78,517.1,378.71,506.46,378.71,495.82Z" transform="translate(148.82 -214.56)"/><path class="cls-2" d="M217.47,483.62c-2.37.06-1.49,2.24-1.5,3.53-.09,7-.05,14-.05,20.93v12c0,13.92.17,14.11,14.14,12.13,9.73-1.38,16.73-6.62,19.8-16,3.13-9.52,1.33-18.31-5.86-25.74C236.52,482.76,226.94,483.36,217.47,483.62Zm6.64,45.86c-4.46,1.37-5.22-1.18-5.08-5.79.32-11.14.21-22.29,0-33.44-.05-3,.62-3.89,3.78-3.9,12.85,0,21.28,5,24.3,15C251.68,516.3,241.45,529.24,224.11,529.48Z" transform="translate(148.82 -214.56)"/><path class="cls-2" d="M23,513.45a15.43,15.43,0,0,0,8.29-16.68c-1-6.09-6.17-11.86-12.39-12.89-4.06-.66-8.29-.21-12.44-.36-2.26-.08-2.28,1.32-2.27,2.92,0,3.66,0,7.32,0,11,0,10.66,0,21.31,0,32,0,1.16-.65,2.91,1.53,3s1.61-1.68,1.63-2.89c.06-2.66,0-5.32,0-8,0-6.56,0-6.42,6.45-6.15,2.05.09,2.91,1.08,3.82,2.52,2.58,4.06,5.27,8.06,7.78,12.16,1.06,1.71,2.1,3,4.88,1.93-2.95-4.51-5.67-8.87-8.6-13.09C20,516.4,19.52,515.12,23,513.45Zm-7.38-1c-8.22.26-8.22.26-8.22-7.75V494.29c0-8.41,0-8.41,8.63-7.84A13.16,13.16,0,0,1,28.45,500,12.88,12.88,0,0,1,15.6,512.5Z" transform="translate(148.82 -214.56)"/><path class="cls-2" d="M538.68,486.42c-.41-1.12-.4-2.73-2.26-2.86-2.12-.15-2.28,1.49-2.78,2.86q-4.38,11.88-8.75,23.75-3.6,9.81-7.13,19.62c-.36,1-1.92,2.57,1.08,2.58,1.56-.12,1.61-1.6,2.06-2.81,1.91-5.12,3.85-10.22,5.75-15.35.51-1.38.67-3.09,2.64-3.11q7-.06,14,0c2.09,0,2,2,2.45,3.26,2,5.25,3.95,10.56,5.8,15.88.5,1.43,1.18,2.6,2.75,2,1.79-.7.31-2,0-2.84Q546.56,507.9,538.68,486.42Zm1.71,21.73c-3.63-.12-7.26,0-11.49,0l7.24-20.07c2.35,6.42,4.26,11.87,6.34,17.26C543.35,507.59,542.68,508.22,540.39,508.15Z" transform="translate(148.82 -214.56)"/><path class="cls-2" d="M447.67,526.48c-9.76,6-21.46,4.4-28.84-4.06-7-8-7.16-20.37-.44-28.31,7.49-8.85,19.21-10.69,29.21-4.69,1.16.69,2.49,3.23,3.93.71,1-1.81-1.26-2.35-2.33-3.1-8.17-5.76-20.27-5.46-28.46.6a25.26,25.26,0,0,0-9,28.35c3.5,10.32,13,17.11,22.38,17.06,6.38.06,11-1.22,15-4,1.1-.75,3.78-1.21,2.19-3.45C449.92,523.63,448.71,525.84,447.67,526.48Z" transform="translate(148.82 -214.56)"/><path class="cls-2" d="M287.84,486.4c5.32.14,10.64.07,16,0,1,0,2.58.57,2.56-1.34,0-1.75-1.41-1.52-2.55-1.52-6.15,0-12.31.14-18.45-.07-3-.11-3.64,1-3.58,3.72.16,7,.06,14,.06,20.95s0,14,0,20.94c0,2,0,3.43,2.8,3.35,6.48-.19,13-.05,19.45-.08.89,0,2.14.34,2.27-1.13.15-1.7-1.08-1.76-2.3-1.75-1,0-2,0-3,0-5.25-.32-12.46,2.29-15.2-1s-.6-10.14-.85-15.43c-.13-2.69.5-3.84,3.48-3.66a128.58,128.58,0,0,0,13.46,0c1.48-.07,4.36,1.39,4.25-1.43-.11-2.58-2.94-1.27-4.52-1.34-4.48-.19-9-.16-13.47,0-2.21.06-3.32-.32-3.21-2.92.21-4.82.18-9.65,0-14.46C284.93,486.93,285.7,486.35,287.84,486.4Z" transform="translate(148.82 -214.56)"/><path class="cls-2" d="M84.78,506.52c-.83,0-1.67,0-2.5,0-5.24-.35-12.63,2.34-15.16-1s-.63-10.5-.85-16c-.1-2.35.54-3.2,3-3.11,5,.18,10,.13,15,0,1.18,0,3.39,1.06,3.3-1.5-.08-2-2-1.3-3.14-1.32-6-.07-12,.09-18-.09-2.62-.07-3.44.78-3.38,3.39.15,7,0,14,0,20.94s.11,14-.07,20.95c-.07,2.7.49,3.82,3.48,3.69,5.81-.24,11.64,0,17.46-.12,1.24,0,3.42,1,3.55-1.25.15-2.43-2.1-1.53-3.38-1.56-4.82-.1-9.64-.15-14.46,0-2.46.08-3.59-.42-3.44-3.22.24-4.64.22-9.31,0-14-.12-2.54.85-3,3.13-3,5.15.14,10.31.08,15.47,0,1,0,2.59.68,2.72-1.14C87.74,506.13,86,506.58,84.78,506.52Z" transform="translate(148.82 -214.56)"/><path class="cls-1" d="M-63.43,385.57h0c-3.23-.83-1.93-3.5-1.93-5.37-.08-44.31,0-88.61-.12-132.92,0-1.88,1.32-4.5-1.77-5.51q-.08,73.86-.13,147.7l6-.07C-62.11,388.13-62.77,386.85-63.43,385.57Z" transform="translate(148.82 -214.56)"/><path class="cls-1" d="M-64.18,244.43a34,34,0,0,1,.19,6q0,63.28,0,126.57c0,2.23-.35,4.53.53,6.67q0-68.25.06-136.5c0-1.8-1.18-4.33,1.6-5.26a11.92,11.92,0,0,1-5.48-2.11h0v2h0C-64.78,241-64.47,242.83-64.18,244.43Z" transform="translate(148.82 -214.56)"/><path class="cls-1" d="M-61.44,241.77c-1-3.43-3.84-1.46-5.82-2a11.92,11.92,0,0,0,5.48,2.11Z" transform="translate(148.82 -214.56)"/><path class="cls-1" d="M-65.49,247.28c.08,44.31,0,88.61.12,132.92,0,1.87-1.3,4.54,1.93,5.37v-1.93c-.88-2.14-.53-4.44-.53-6.67q0-63.29,0-126.57a34,34,0,0,0-.19-6c-.29-1.6-.6-3.46-3.08-2.66h0C-64.17,242.78-65.49,245.4-65.49,247.28Z" transform="translate(148.82 -214.56)"/><path class="cls-2" d="M141.77,506.4c-3.15-2.6-7.14-3.46-10.52-5.52-3.14-1.91-5.53-4.26-5.09-8.37a6.82,6.82,0,0,1,4.47-6.05c3.71-1.43,6.87-.46,9.17,2.79.69,1,1.39,1.53,2.41.88,1.57-1,.29-2.12-.23-2.94-2.75-4.34-9.75-5.57-14.18-2.59-6.5,4.38-6.33,13.25.59,17.85,3.43,2.27,7.46,3.6,10.92,5.83,4.95,3.2,6.84,8,5.64,12.74a11.72,11.72,0,0,1-10.1,9c-5.39.53-9.56-2-12.25-7.46-.56-1.14-.6-3-2.47-2.06-1.57.82-.54,2.32-.08,3.5a14.73,14.73,0,0,0,16.15,8.86,15.17,15.17,0,0,0,12-14.62C147.92,513.29,145.56,509.52,141.77,506.4Z" transform="translate(148.82 -214.56)"/><path class="cls-1" d="M-144.76,215.33a49.79,49.79,0,0,1,7.33.18c.1.11.19.22.29.32,25.56,0,51.13.06,76.7-.11,3.94,0,5.09,1.13,5.08,5.08q-.2,82.38-.11,164.77h0c.22,1.72-2,2.19-1.94,3.84h0l2.9,0h0c0-56.34-.07-112.69.11-169,0-4.72-1.39-5.74-5.84-5.7-25.6.19-51.2.09-76.8.09-5,0-8,0-9.73.78A4.68,4.68,0,0,1-144.76,215.33Z" transform="translate(148.82 -214.56)"/><path class="cls-1" d="M-147,227l.89-.69a7,7,0,0,1-.84-1.73,4,4,0,0,1-.78-3.15c-.38-2.32-.39-4.64.23-5.43a1.83,1.83,0,0,1,.58-.48c-2.58,1.23-2.17,4.31-1.13,12h0A4,4,0,0,1-147,227Z" transform="translate(148.82 -214.56)"/><path class="cls-1" d="M-147.46,216c-.62.79-.61,3.11-.23,5.43.13-1.32.58-2.68.63-3.87.12-2.78,3-1.57,4.81-1.75a44.49,44.49,0,0,1,4.9,0h.21c-.1-.1-.19-.21-.29-.32a49.79,49.79,0,0,0-7.33-.18,4.68,4.68,0,0,0-2,.18l-.11.05A1.83,1.83,0,0,0-147.46,216Z" transform="translate(148.82 -214.56)"/><path class="cls-1" d="M-145.35,225.8h0a4.76,4.76,0,0,1-1.56-1.18,7,7,0,0,0,.84,1.73Z" transform="translate(148.82 -214.56)"/><path class="cls-1" d="M-147,227a4,4,0,0,0-1,.53h0l.92-.42Z" transform="translate(148.82 -214.56)"/><path class="cls-1" d="M298.06,432.49H77.93c2.82,1.45,4.68,1,6.47,1q106.82.08,213.65.09h0c0-.36,0-.72,0-1.09Z" transform="translate(148.82 -214.56)"/><path class="cls-1" d="M519.23,433.57v-1.1h-207c0,.37,0,.74,0,1.1h207Z" transform="translate(148.82 -214.56)"/><path class="cls-2" d="M603.64,529.47c-4,0-8-.22-11.94.07-3.29.24-4.13-.87-4.08-4.1.19-12.77.1-25.54,0-38.31,0-1.29.85-3.41-1.5-3.5s-1.62,2.06-1.63,3.35c-.08,7,0,13.93,0,20.89,0,7.13,0,14.27,0,21.4,0,1.71-.24,3.24,2.41,3.17,5.64-.17,11.28,0,16.92-.06.91,0,2.12.27,2.2-1.22C606.08,529.45,604.83,529.47,603.64,529.47Z" transform="translate(148.82 -214.56)"/><path class="cls-2" d="M486.94,508.05c0-7.29,0-14.59,0-21.88,0-1,.6-2.54-1.3-2.59s-1.58,1.34-1.58,2.47q0,21.87,0,43.75c0,1.09-.35,2.54,1.45,2.55,2.33,0,1.42-1.86,1.43-2.92C487,522.3,486.94,515.17,486.94,508.05Z" transform="translate(148.82 -214.56)"/><path class="cls-2" d="M180.81,483.6c-1.7,0-1.44,1.51-1.44,2.61q0,21.87,0,43.75c0,1.15-.18,2.48,1.61,2.4s1.29-1.61,1.3-2.59c0-7.29,0-14.58,0-21.87,0-7.13,0-14.25,0-21.38C182.24,485.43,183,483.57,180.81,483.6Z" transform="translate(148.82 -214.56)"/><path class="cls-1" d="M310.23,429.31h0c-5.06-4.52-8.74-3.55-12.17,3.18h0a.77.77,0,0,1,.21.73c-.07.24-.15.36-.22.36h0c2.32,7.39,6.76,8.91,12.18,4.17v-8.44Zm-1.94,3.84c-.23,1.29-.71,2.46-2.46,2.25-.91-.12-1.57-.59-1.48-1.57.14-1.6,1.23-2.21,2.7-2.24C308,431.57,308.63,431.93,308.29,433.15Z" transform="translate(148.82 -214.56)"/><path class="cls-1" d="M298.27,433.22a.77.77,0,0,0-.21-.73c0,.37,0,.73,0,1.09C298.12,433.58,298.2,433.46,298.27,433.22Z" transform="translate(148.82 -214.56)"/><path class="cls-1" d="M109.69,227.59h0a.74.74,0,0,1,.69-.47,43.15,43.15,0,0,1-.51-9c0-1.7.36-2.89,2.43-2.86,17.38.27,34.76-.54,52.13.43-2.08-1.45-4.48-.94-6.74-1-12.4-.08-24.8,0-37.2-.06-12.57,0-12.57,0-10.8,12.86Z" transform="translate(148.82 -214.56)"/><path class="cls-1" d="M112.3,215.31c-2.07,0-2.45,1.16-2.43,2.86a43.15,43.15,0,0,0,.51,9,1.06,1.06,0,0,1,.24,0c.69-.47.91-.64.47-1.81-2.73-7.13-1-9.52,6.47-9.53l46.87-.06h0C147.06,214.77,129.68,215.58,112.3,215.31Z" transform="translate(148.82 -214.56)"/><path class="cls-1" d="M110.38,227.12a.74.74,0,0,0-.69.47h0l.72-.35Z" transform="translate(148.82 -214.56)"/><path class="cls-1" d="M110.62,227.14a1.06,1.06,0,0,0-.24,0l0,.12Z" transform="translate(148.82 -214.56)"/><path class="cls-1" d="M512.5,245.41c1.12.34,2.32-.19,2.31-1.19-.06-6.08,5.72-7.8,8.51-11.73a7.27,7.27,0,0,0,.5-.85c-5.81,3.85-11.16,8.2-15.11,14A4.38,4.38,0,0,1,512.5,245.41Z" transform="translate(148.82 -214.56)"/><path class="cls-1" d="M510.67,246c4.56,2.12,6.37,1,5.95-4.34a2.2,2.2,0,0,1,1.52-2.59c3.39-1.39,4.46-4.43,5.68-7.41a7.27,7.27,0,0,1-.5.85c-2.79,3.93-8.57,5.65-8.51,11.73,0,1-1.19,1.53-2.31,1.19a4.38,4.38,0,0,0-3.79.27h0A7,7,0,0,1,510.67,246Z" transform="translate(148.82 -214.56)"/><path class="cls-1" d="M110,389.19a.83.83,0,0,0-.08-.12c.09-2.53-.65-5.5-.47-7.95a52.35,52.35,0,0,0-.07,8.4h0C109.56,389.23,109.77,389.13,110,389.19Z" transform="translate(148.82 -214.56)"/><path class="cls-1" d="M158.38,377.06c1.59,0,3.31.64,4.79-.52-13.8.06-27.59.14-41.39.17-1.78,0-3.31,0-4.63.05a36.5,36.5,0,0,0,4.41.38C133.83,377,146.11,377.13,158.38,377.06Z" transform="translate(148.82 -214.56)"/><path class="cls-1" d="M109.92,389.07a.83.83,0,0,1,.08.12.88.88,0,0,1,.38.2,43.35,43.35,0,0,0-.06-5.47c-.67-4.84.85-6.62,6.15-6.47,14.25.41,28.52.17,42.79.08,1.27,0,3.08,1.11,3.91-1h0c-1.48,1.16-3.2.51-4.79.52-12.27.07-24.55,0-36.82.08a36.5,36.5,0,0,1-4.41-.38c-5.33.15-7.17.85-7.7,4.36C109.27,383.57,110,386.54,109.92,389.07Z" transform="translate(148.82 -214.56)"/><path class="cls-1" d="M110.17,389.42l-.17-.23c-.23-.06-.44,0-.62.33h0Z" transform="translate(148.82 -214.56)"/><path class="cls-1" d="M110.17,389.42l.21,0a.88.88,0,0,0-.38-.2Z" transform="translate(148.82 -214.56)"/><path class="cls-1" d="M418.3,227.16a1.32,1.32,0,0,1,.58.31l.24-9.79c0-1.6-.21-3.05-2.3-2.91-3.75.23-7.59-.65-11.26.63l.12,0C421.14,215.69,418.42,212.4,418.3,227.16Z" transform="translate(148.82 -214.56)"/><path class="cls-1" d="M414.56,215.78c2.52-.08,3.61.9,3.46,3.44s-.19,5.28-.28,7.93a1.49,1.49,0,0,1,.56,0c.12-14.76,2.84-11.47-12.62-11.78l-.12,0c-.27.09-.54.2-.8.31C408,215.75,411.3,215.88,414.56,215.78Z" transform="translate(148.82 -214.56)"/><path class="cls-1" d="M418.3,227.31l.58.16a1.32,1.32,0,0,0-.58-.31Z" transform="translate(148.82 -214.56)"/><path class="cls-1" d="M418.3,227.31v-.15a1.49,1.49,0,0,0-.56,0h0Z" transform="translate(148.82 -214.56)"/><path class="cls-1" d="M225.17,387.55c-.86.76-1,1.49.07,2.18h0a9.61,9.61,0,0,1,2.36-1A5.33,5.33,0,0,1,225.17,387.55Z" transform="translate(148.82 -214.56)"/><path class="cls-1" d="M236.16,389.36c-3.19-3.51-7.36-1-11-1.81h0a5.33,5.33,0,0,0,2.43,1.22C230.42,388,233.29,388.63,236.16,389.36Z" transform="translate(148.82 -214.56)"/><path class="cls-1" d="M227.6,388.77a9.61,9.61,0,0,0-2.36,1l9.25-.31C232.31,388.71,229.83,389.28,227.6,388.77Z" transform="translate(148.82 -214.56)"/><path class="cls-1" d="M227.6,388.77c2.23.51,4.71-.06,6.89.65l1.67-.06C233.29,388.63,230.42,388,227.6,388.77Z" transform="translate(148.82 -214.56)"/><path class="cls-1" d="M581.53,215.78c-5.95-1.95-11.9-1.26-17.85,0A73,73,0,0,1,581.53,215.78Z" transform="translate(148.82 -214.56)"/><path class="cls-1" d="M581.53,215.78a73,73,0,0,0-17.85,0h0Z" transform="translate(148.82 -214.56)"/><path class="cls-1" d="M581.44,377.57c-5.09-1.84-10.38-.5-15.56-1h0C571,378,576.32,376.19,581.44,377.57Z" transform="translate(148.82 -214.56)"/><path class="cls-1" d="M581.44,377.57c-5.12-1.38-10.44.44-15.56-1h0C571,378.78,576.27,377,581.44,377.57Z" transform="translate(148.82 -214.56)"/><path class="cls-1" d="M312,432.84c.07-.25.15-.37.22-.37h0c-.57-1.11-.78-2.45-2-3.16a11.75,11.75,0,0,1,0,8.44c1.42-1,1.68-2.61,2-4.18h0A.72.72,0,0,1,312,432.84Z" transform="translate(148.82 -214.56)"/><path class="cls-1" d="M312,432.84a.72.72,0,0,0,.21.73c0-.36,0-.73,0-1.1C312.15,432.47,312.07,432.59,312,432.84Z" transform="translate(148.82 -214.56)"/><path class="cls-1" d="M310.23,429.31h0v8.44A11.75,11.75,0,0,0,310.23,429.31Z" transform="translate(148.82 -214.56)"/><path class="cls-1" d="M610.65,314.9c.19,2.35-.38,4.8,1,7C610.47,319.67,612.25,317,610.65,314.9Z" transform="translate(148.82 -214.56)"/><path class="cls-1" d="M610.65,314.9c1.6,2.14-.18,4.77,1,7v0C611.29,319.56,613,316.93,610.65,314.9Z" transform="translate(148.82 -214.56)"/><path class="cls-1" d="M437.87,366.3h0l-3.29,3.15A4.07,4.07,0,0,0,437.87,366.3Z" transform="translate(148.82 -214.56)"/><path class="cls-1" d="M437.87,366.3a4.07,4.07,0,0,1-3.29,3.15h0C437.08,369.87,438.25,368.89,437.87,366.3Z" transform="translate(148.82 -214.56)"/><path class="cls-1" d="M385.9,223.46a4.86,4.86,0,0,0-2.95,2.28C384,225,385.42,224.87,385.9,223.46Z" transform="translate(148.82 -214.56)"/><path class="cls-1" d="M385.9,223.46c-.48,1.41-1.94,1.55-2.95,2.28h0C384.6,225.83,386.05,225.68,385.9,223.46Z" transform="translate(148.82 -214.56)"/><path class="cls-1" d="M622.72,289.77c-2.09,6.18-.58,12.55-.88,18.83-.11,2.29-1.06,4.91,1,7h0A131.71,131.71,0,0,1,622.72,289.77Z" transform="translate(148.82 -214.56)"/><path class="cls-1" d="M622.84,315.58l-.12-25.81A131.71,131.71,0,0,0,622.84,315.58Z" transform="translate(148.82 -214.56)"/><path class="cls-1" d="M689.84,387.65c-2,.28-4.35-1-6,1.12h0C685.59,387.12,688,388.88,689.84,387.65Z" transform="translate(148.82 -214.56)"/><path class="cls-1" d="M683.83,388.77c2-.17,4.2.28,6-1.12C688,388.88,685.59,387.12,683.83,388.77Z" transform="translate(148.82 -214.56)"/><path class="cls-1" d="M631.9,259.12h0a6.17,6.17,0,0,1,1.91-3.35C631.56,256,631.73,257.55,631.9,259.12Z" transform="translate(148.82 -214.56)"/><path class="cls-1" d="M633.82,255.77a6.17,6.17,0,0,0-1.91,3.35A5.47,5.47,0,0,0,633.82,255.77Z" transform="translate(148.82 -214.56)"/><path class="cls-1" d="M237.06,360.33c-.81,2.19-1.23,4.38.25,6.59C238.16,364.73,238.64,362.54,237.06,360.33Z" transform="translate(148.82 -214.56)"/><path class="cls-1" d="M334.1,389.41c.09-2.1.06-4.12-3-3.84h0C332.51,386.56,333,388.25,334.1,389.41Z" transform="translate(148.82 -214.56)"/><path class="cls-1" d="M331.3,386.42c.21,1.42.33,2.91,2.27,3A19.21,19.21,0,0,0,331.3,386.42Z" transform="translate(148.82 -214.56)"/><path class="cls-1" d="M334.1,389.41c-1.14-1.16-1.59-2.85-3-3.84h0c.07.28.11.56.16.85a19.21,19.21,0,0,1,2.27,3A4.77,4.77,0,0,0,334.1,389.41Z" transform="translate(148.82 -214.56)"/><path class="cls-1" d="M194.5,287.85c-1.87-.38-2.6-2.05-3.31-3.75-.33-.77-.75-1.59-1.74-1.11-1.15.56-1,1.54-.4,2.45,1.07,1.63,2.94,2.66,3.57,4.62A4.28,4.28,0,0,1,194.5,287.85Z" transform="translate(148.82 -214.56)"/><path class="cls-1" d="M189.05,285.44c-.59-.91-.75-1.89.4-2.45,1-.48,1.41.34,1.74,1.11.71,1.7,1.44,3.37,3.31,3.75a5.39,5.39,0,0,1,.48-.25c-2.45-1.76-2.84-4.51-3.13-7.29-6.95,3-6.95,3-1.85,8.1.81.8,1.58,1.64,2.36,2.47h0a6.55,6.55,0,0,1,.26-.82C192,288.1,190.12,287.07,189.05,285.44Z" transform="translate(148.82 -214.56)"/><path class="cls-1" d="M192.62,290.06a2.67,2.67,0,0,1,.13.4.51.51,0,0,1,0,.13,6.5,6.5,0,0,0,2.12-2.69l-.35,0A4.28,4.28,0,0,0,192.62,290.06Z" transform="translate(148.82 -214.56)"/><path class="cls-1" d="M192.75,290.46a2.67,2.67,0,0,0-.13-.4,6.55,6.55,0,0,0-.26.82,3.65,3.65,0,0,0,.37-.29A.51.51,0,0,0,192.75,290.46Z" transform="translate(148.82 -214.56)"/><path class="cls-1" d="M194.85,287.9a2.71,2.71,0,0,0,.13-.3,5.39,5.39,0,0,0-.48.25Z" transform="translate(148.82 -214.56)"/><path class="cls-1" d="M184.73,293.29a3.39,3.39,0,0,1,4.46.7,2.56,2.56,0,0,1,1.63-1.95c-2.36-.2-4.71-.35-6.54,1.62v0h.11C184.5,293.57,184.61,293.43,184.73,293.29Z" transform="translate(148.82 -214.56)"/><path class="cls-1" d="M184.73,293.29c-.12.14-.23.28-.35.41a7.62,7.62,0,0,1,4.7.93c0-.22.07-.44.11-.64A3.39,3.39,0,0,0,184.73,293.29Z" transform="translate(148.82 -214.56)"/><path class="cls-1" d="M190.82,292a3.7,3.7,0,0,1,.73-.19c-3.18-2.38-5.77-2.45-7.27,1.81C186.11,291.69,188.46,291.84,190.82,292Z" transform="translate(148.82 -214.56)"/><path class="cls-1" d="M189.19,294h0a2.72,2.72,0,0,1,.11.38l2-2.3-.53,0A2.56,2.56,0,0,0,189.19,294Z" transform="translate(148.82 -214.56)"/><path class="cls-1" d="M189.31,294.38a2.72,2.72,0,0,0-.11-.38h0c0,.2-.08.42-.11.64h0Z" transform="translate(148.82 -214.56)"/><path class="cls-1" d="M191.35,292.08l.2-.23a3.7,3.7,0,0,0-.73.19Z" transform="translate(148.82 -214.56)"/><path class="cls-1" d="M181.54,292.63c-.76-.72-1.6-.2-2.37.24a3.53,3.53,0,0,1,2,.08A1.63,1.63,0,0,0,181.54,292.63Z" transform="translate(148.82 -214.56)"/><path class="cls-1" d="M179.17,292.87c-.54.3-1,.56-1.47.35.45-.09.94-.24,1.47-.35.77-.44,1.61-1,2.37-.24.39-.44.27-1,.06-2-1.93,1.5-4.68,1.53-6.86,4,3.71-.78,5.55-1.17,6.41-1.67A3.53,3.53,0,0,0,179.17,292.87Z" transform="translate(148.82 -214.56)"/><path class="cls-1" d="M179.17,292.87c-.53.11-1,.26-1.47.35C178.13,293.43,178.63,293.17,179.17,292.87Z" transform="translate(148.82 -214.56)"/><path class="cls-1" d="M172.2,231c.27-2.21-.6-3.34-2.93-3.21-1.75.09-3.52.07-5.27.09h0C166.73,229,170.3,227.8,172.2,231Z" transform="translate(148.82 -214.56)"/><path class="cls-1" d="M167.13,229.07l3.67,1.39A4.21,4.21,0,0,0,167.13,229.07Z" transform="translate(148.82 -214.56)"/><path class="cls-1" d="M170.8,230.46l1.4.54c-1.9-3.2-5.47-2-8.17-3.11l3.1,1.18A4.21,4.21,0,0,1,170.8,230.46Z" transform="translate(148.82 -214.56)"/><path class="cls-1" d="M173.23,375.79a1.67,1.67,0,0,0-.37,1.2c1.43.88,2.74.9,3.76-.72C175.63,374.83,174.45,374.85,173.23,375.79Z" transform="translate(148.82 -214.56)"/><path class="cls-1" d="M184.27,293.7h0c-.09.1-.18.19-.27.31a1.43,1.43,0,0,1-1.7-.31h0s0,.08,0,.12c.69.81,1.34.62,2,0a.37.37,0,0,0,0-.11Z" transform="translate(148.82 -214.56)"/><path class="cls-1" d="M182.29,293.82c.17,1.13-.53,2.52,1,3.31,1.52-.79.82-2.19,1-3.32C183.63,294.44,183,294.63,182.29,293.82Z" transform="translate(148.82 -214.56)"/><path class="cls-1" d="M184,294c.09-.12.18-.21.27-.31h-2A1.43,1.43,0,0,0,184,294Z" transform="translate(148.82 -214.56)"/><path class="cls-1" d="M565.71,388.8c-2.07-2.33-4.74-.84-7.14-1.13h0C560.83,388.88,563.55,387.09,565.71,388.8Z" transform="translate(148.82 -214.56)"/><path class="cls-1" d="M558.59,387.68c2.22,1.38,4.73.87,7.12,1.12C563.55,387.09,560.83,388.88,558.59,387.68Z" transform="translate(148.82 -214.56)"/><path class="cls-1" d="M-56.52,221.69c-.19-2.72-1.11-3.95-3.81-4-2-.06-4-.12-6-.12-21,0-41.95,0-62.93,0-2.44,0-5,.3-7.18-1,2.19,1.77,5,1.61,7.66,1.61q31.47,0,62.92,0c2.32,0,4.67-.16,6.91.69.95.37,1.88.87,1.76,2.1s-1.07,1.59-2.09,1.74a32,32,0,0,1-4.49.13h-65.4q33.21,0,66.41,0c3.6,0,5.59.55,6.27,2.06C-56.45,223.81-56.45,222.75-56.52,221.69Z" transform="translate(148.82 -214.56)"/><path class="cls-1" d="M-57.18,385.56a2.93,2.93,0,0,0,0-1.66q-.12-73.92,0-147.81c0-2.31.22-4.6.43-6.9-.14.46-.3.93-.5,1.45A14.84,14.84,0,0,0-58,236.5c.08,2.13.29,4.41-2.11,5.67l-1.32-.23q0,69.13-.05,138.26c0,1.67,1,4-1.06,5,.88,1.21,2,2.34,1.39,4a3.53,3.53,0,0,1,1.67-.59C-59.55,386.75-58.73,385.77-57.18,385.56Z" transform="translate(148.82 -214.56)"/><path class="cls-1" d="M-60.12,242.17c2.4-1.26,2.19-3.54,2.11-5.67a14.84,14.84,0,0,1,.76-5.86c.2-.52.36-1,.5-1.45.12-1.44.23-2.88.27-4.33-.68-1.51-2.67-2.05-6.27-2.06q-33.21,0-66.41,0h65.4a32,32,0,0,0,4.49-.13c1-.15,2-.54,2.09-1.74s-.81-1.73-1.76-2.1c-2.24-.85-4.59-.68-6.91-.69q-31.45,0-62.92,0c-2.7,0-5.47.16-7.66-1.61a6.92,6.92,0,0,1-.92-.67c-.57,4.12,2.1,4,5,4q34.69-.06,69.38,0c1.65,0,3.5-.52,4.83,2.05h-78.45c1.45,2.41,3.3,1.89,5,1.9q34.68,0,69.37,0c2.57,0,6.55.55,4.5,3.45-3.08,4.37-1.32,8.46-1.72,12.65a2,2,0,0,1-1.95,1.89v.17Z" transform="translate(148.82 -214.56)"/><path class="cls-1" d="M-61.16,389.21c.63-1.63-.51-2.76-1.39-4a4.26,4.26,0,0,1-.88.33c.66,1.28,1.32,2.56,2,3.83h0Z" transform="translate(148.82 -214.56)"/><path class="cls-1" d="M-136.43,216.5c2.19,1.32,4.74,1,7.18,1,21,0,42,0,62.93,0,2,0,4,.06,6,.12,2.7.08,3.62,1.31,3.81,4,.07,1.06.07,2.12,0,3.17.45,1,.33,2.39-.27,4.33-.21,2.3-.43,4.59-.43,6.9q0,73.91,0,147.81a2.93,2.93,0,0,1,0,1.66,6.54,6.54,0,0,1,1.71,0q0-82.38.11-164.77c0-4-1.14-5.11-5.08-5.08-25.57.17-51.14.1-76.7.11A7.35,7.35,0,0,0-136.43,216.5Z" transform="translate(148.82 -214.56)"/><path class="cls-1" d="M-56.48,224.86c0,1.45-.15,2.89-.27,4.33C-56.15,227.25-56,225.85-56.48,224.86Z" transform="translate(148.82 -214.56)"/><path class="cls-1" d="M-137.14,215.83h-.21a6.92,6.92,0,0,0,.92.67A7.35,7.35,0,0,1-137.14,215.83Z" transform="translate(148.82 -214.56)"/><path class="cls-1" d="M-61.16,389.21c0,.07-.05.13-.07.19h1.79a5.36,5.36,0,0,1-.05-.78A3.53,3.53,0,0,0-61.16,389.21Z" transform="translate(148.82 -214.56)"/><path class="cls-1" d="M-61.44,389.4h.21c0-.06,0-.12.07-.19Z" transform="translate(148.82 -214.56)"/><path class="cls-1" d="M-141.19,226.85c-1.38-.07-2.77-.12-4.16-.14a.61.61,0,0,1-.09.16Z" transform="translate(148.82 -214.56)"/><path class="cls-1" d="M-145.35,226.71c1.39,0,2.78.07,4.16.14,21.19-.15,42.38,0,63.56,0a58.22,58.22,0,0,1,9.43.26c-.61-2.5-2.62-1.2-3.89-1.2-21.38-.1-42.76-.18-64.14,0-3.05,0-6.08-2.79-9.12-.11h0A1.61,1.61,0,0,1-145.35,226.71Z" transform="translate(148.82 -214.56)"/><path class="cls-1" d="M-75.72,227.24c-18.24,0-36.48-.08-54.71,0-3.6,0-7.18-.24-10.76-.41l-4.25,0c-.3.42-1,.31-1.65.28,1.47.13,2.94.36,4.42.36q35,0,70.07,0c.48,0,1,0,1.45-.08C-72.63,226.94-74.21,227.25-75.72,227.24Z" transform="translate(148.82 -214.56)"/><path class="cls-1" d="M-77.63,226.8c-21.18,0-42.37-.1-63.56,0,3.58.17,7.16.43,10.76.41,18.23-.1,36.47-.06,54.71,0,1.51,0,3.09-.3,4.57.17,1-.1,2-.25,3-.35h0A58.22,58.22,0,0,0-77.63,226.8Z" transform="translate(148.82 -214.56)"/><path class="cls-1" d="M-145.44,226.87a.61.61,0,0,0,.09-.16h-.44a3.57,3.57,0,0,1-.28-.35l-.89.69a3.72,3.72,0,0,1,.75-.17Z" transform="translate(148.82 -214.56)"/><path class="cls-1" d="M-145.79,226.7h.44a1.61,1.61,0,0,0,0-.91l-.72.55A3.57,3.57,0,0,0-145.79,226.7Z" transform="translate(148.82 -214.56)"/><path class="cls-1" d="M-145.44,226.87h-.77a3.72,3.72,0,0,0-.75.17l-.13.11C-146.44,227.18-145.74,227.29-145.44,226.87Z" transform="translate(148.82 -214.56)"/><polygon class="cls-1" points="87.38 27.21 87.38 27.21 87.38 27.21 87.38 27.21"/><polygon class="cls-1" points="87.38 27.21 87.38 27.21 87.38 27.21 87.38 27.21"/><polygon class="cls-1" points="87.38 27.21 87.38 27.21 87.38 27.21 87.38 27.21"/><polygon class="cls-1" points="85.38 171.01 85.38 171.01 85.38 171.01 85.38 171.01"/><polygon class="cls-1" points="85.38 171.01 85.38 171.01 85.38 171.01 85.38 171.01"/><polygon class="cls-1" points="85.38 171.01 85.38 171.01 85.38 171.01 85.38 171.01"/><path class="cls-1" d="M-62.91,384.7c.89-1.86.45-3.93.45-5.89q.06-65.15.05-130.28c0-2.22-.54-4.57.88-6.61l-.25,0c-2.78.93-1.59,3.46-1.6,5.26q-.1,68.25-.06,136.5c.1.22.19.44.31.66A3.11,3.11,0,0,0-62.91,384.7Z" transform="translate(148.82 -214.56)"/><path class="cls-1" d="M-61.44,241.77h0l-.34.11.25,0Z" transform="translate(148.82 -214.56)"/><path class="cls-1" d="M-63.43,385.57a4.88,4.88,0,0,0,.52-.87,3.11,3.11,0,0,1-.22-.4c-.12-.22-.21-.44-.31-.66v1.93Z" transform="translate(148.82 -214.56)"/><path class="cls-1" d="M-61.49,380.2q.1-69.13.05-138.26h0c0,.26-.09.53-.13.79a36.56,36.56,0,0,0-.38,8q0,63.4,0,126.81c0,2.47.4,5-.75,7.38l0,0,.24.34C-60.47,384.17-61.49,381.87-61.49,380.2Z" transform="translate(148.82 -214.56)"/><polygon class="cls-1" points="87.38 27.21 87.38 27.21 87.38 27.21 87.38 27.21"/><path class="cls-1" d="M-61.44,241.77l0,.16h0v-.17Z" transform="translate(148.82 -214.56)"/><polygon class="cls-1" points="85.38 171.01 85.38 171.01 85.38 171.01 85.38 171.01"/><path class="cls-1" d="M-62.79,384.9l-.64.67h0a4.26,4.26,0,0,0,.88-.33Z" transform="translate(148.82 -214.56)"/><path class="cls-1" d="M-62,377.49q0-63.4,0-126.81a36.56,36.56,0,0,1,.38-8c0-.26.09-.53.13-.79h-.06c-1.42,2-.88,4.39-.88,6.61q0,65.14-.05,130.28c0,2,.44,4-.45,5.89l.12.2,0,0C-61.61,382.5-62,380-62,377.49Z" transform="translate(148.82 -214.56)"/><path class="cls-1" d="M-61.44,241.77l-.09.15h.06Z" transform="translate(148.82 -214.56)"/><path class="cls-1" d="M-63.43,385.57l.64-.67-.12-.2A4.88,4.88,0,0,1-63.43,385.57Z" transform="translate(148.82 -214.56)"/><path class="cls-1" d="M-57.73,387.16A7.61,7.61,0,0,0-59,388.67a3.62,3.62,0,0,1,1.14.45A3.13,3.13,0,0,1-57.73,387.16Z" transform="translate(148.82 -214.56)"/><path class="cls-1" d="M-57.73,387.16a3.13,3.13,0,0,0-.11,2c.14.09.29.18.43.29-.09-1.65,2.16-2.12,1.94-3.84h0A11.06,11.06,0,0,0-57.73,387.16Z" transform="translate(148.82 -214.56)"/><path class="cls-1" d="M-59,388.67a6.89,6.89,0,0,0-.46.73h1.7c0-.1-.07-.2-.1-.29A3.62,3.62,0,0,0-59,388.67Z" transform="translate(148.82 -214.56)"/><path class="cls-1" d="M-57.41,389.41c-.14-.11-.29-.2-.43-.29,0,.09.06.19.1.29Z" transform="translate(148.82 -214.56)"/><path class="cls-1" d="M-57.73,387.16c.17-.53.4-1.06.55-1.6-1.55.21-2.37,1.19-2.31,3.06h.06a3.25,3.25,0,0,1,.45.06A7.61,7.61,0,0,1-57.73,387.16Z" transform="translate(148.82 -214.56)"/><path class="cls-1" d="M-57.18,385.56c-.15.54-.38,1.07-.55,1.6a11.06,11.06,0,0,1,2.26-1.59h0A6.54,6.54,0,0,0-57.18,385.56Z" transform="translate(148.82 -214.56)"/><path class="cls-1" d="M-59.43,388.61h-.06a5.36,5.36,0,0,0,.05.78,6.89,6.89,0,0,1,.46-.73A3.25,3.25,0,0,0-59.43,388.61Z" transform="translate(148.82 -214.56)"/><path class="cls-1" d="M307.05,431.59c-1.47,0-2.56.64-2.7,2.24-.09,1,.57,1.45,1.48,1.57,1.75.21,2.23-1,2.46-2.25S308,431.57,307.05,431.59Z" transform="translate(148.82 -214.56)"/></svg>